<?xml version="1.0" standalone="no"?>
<!DOCTYPE svg PUBLIC "-//W3C//DTD SVG 20010904//EN"
 "http://www.w3.org/TR/2001/REC-SVG-20010904/DTD/svg10.dtd">
<svg version="1.0" xmlns="http://www.w3.org/2000/svg"
 width="198.000000pt" height="255.000000pt" viewBox="0 0 198.000000 255.000000"
 preserveAspectRatio="xMidYMid meet">

<g transform="translate(0.000000,255.000000) scale(0.100000,-0.100000)"
fill="#000000" stroke="none">
<path d="M786 2525 c-351 -73 -629 -317 -734 -645 -79 -246 -46 -528 88 -750
265 -439 841 -597 1298 -355 242 128 420 352 484 612 28 112 30 312 5 416 -69
282 -268 526 -528 646 -131 61 -230 83 -394 87 -104 2 -171 -1 -219 -11z m290
-51 c13 -10 15 -17 7 -20 -10 -4 -10 -10 0 -25 24 -39 -27 -74 -72 -49 -22 11
-29 40 -11 40 6 0 5 8 -2 21 -11 17 -10 22 6 35 26 18 47 18 72 -2z m-168 -46
c28 -50 24 -70 -9 -50 -17 11 -25 11 -42 -1 -12 -8 -37 -18 -55 -21 -35 -8
-41 0 -57 72 -6 27 -4 32 13 32 14 0 23 -11 32 -45 15 -53 26 -51 35 8 9 54
13 59 37 55 11 -2 31 -23 46 -50z m286 30 c35 -16 42 -45 19 -77 -26 -34 -55
-37 -88 -8 -29 25 -29 52 1 82 18 18 35 19 68 3z m-484 -28 c18 -11 6 -25 -23
-25 -26 0 -31 -16 -12 -40 14 -19 16 -19 26 -2 11 19 39 23 39 5 0 -20 -32
-48 -55 -48 -47 0 -76 64 -45 98 22 23 46 28 70 12z m622 -17 c18 -16 25 -43
11 -43 -3 0 -15 7 -25 16 -14 14 -20 14 -33 4 -25 -21 -18 -40 15 -40 35 0 41
-25 9 -35 -33 -11 -75 26 -72 61 4 50 58 71 95 37z m-718 -60 c21 -36 24 -48
14 -55 -17 -10 -26 -10 -49 3 -18 9 -19 7 -13 -15 10 -42 -22 -32 -52 15 -31
50 -21 70 27 52 27 -11 29 -10 24 8 -7 20 1 39 15 39 4 0 20 -21 34 -47z m790
31 c14 -5 13 -10 -4 -42 -30 -57 -35 -63 -53 -56 -15 5 -14 11 10 55 14 27 27
49 29 49 1 0 9 -3 18 -6z m93 -55 c7 -7 7 -24 -3 -56 -18 -59 -10 -67 24 -25
15 18 32 32 39 32 25 0 24 -23 -1 -49 -24 -25 -25 -29 -11 -41 17 -14 20 -40
4 -40 -15 0 -109 83 -109 97 0 6 -12 13 -27 15 -40 5 -37 20 10 50 46 31 58
33 74 17z m-1024 -6 c4 -3 -3 -18 -15 -32 l-23 -25 27 17 c35 22 48 3 16 -23
-25 -21 -9 -27 22 -8 35 22 35 -3 0 -33 -19 -15 -38 -29 -41 -29 -3 0 -20 20
-37 44 l-32 44 33 25 c35 28 40 30 50 20z m692 -27 c33 -9 103 -37 155 -62 81
-40 108 -60 185 -138 73 -73 99 -107 132 -176 57 -117 76 -194 76 -315 0 -123
-18 -200 -77 -320 -74 -149 -181 -251 -341 -326 -107 -50 -193 -69 -321 -69
-125 0 -226 24 -344 82 -68 34 -103 60 -176 133 -79 77 -98 103 -138 186 -53
109 -76 201 -76 307 -1 357 265 656 635 716 55 8 229 -2 290 -18z m-779 -47
c3 -6 1 -16 -5 -22 -8 -8 -4 -18 16 -39 21 -22 24 -31 15 -40 -9 -9 -17 -7
-36 11 -17 16 -30 20 -50 15 -36 -9 -34 12 6 53 34 35 43 39 54 22z m-86 -105
c0 -11 5 -14 16 -10 20 8 44 -10 44 -33 0 -25 -46 -65 -66 -57 -13 5 -14 9 -4
21 7 8 19 15 26 15 8 0 14 5 14 10 0 14 -7 13 -35 -6 -14 -9 -32 -14 -40 -10
-20 7 -19 45 2 68 20 22 43 23 43 2z m1394 7 c9 -14 -72 -74 -89 -67 -23 9
-18 21 22 49 40 28 58 33 67 18z m40 -61 c-1 -8 -5 -23 -9 -33 -6 -15 -4 -17
19 -11 42 10 32 -20 -16 -49 -36 -21 -45 -23 -56 -12 -11 10 -11 17 -2 35 14
26 6 38 -13 21 -11 -9 -17 -8 -26 3 -10 12 -4 19 31 40 46 28 74 30 72 6z
m-1484 -40 c44 -23 57 -37 42 -52 -6 -6 -21 -4 -43 7 -49 25 -59 35 -52 51 7
18 6 18 53 -6z m-50 -53 c0 -9 9 -12 29 -9 23 3 30 -1 36 -17 9 -28 -19 -71
-45 -71 -25 0 -25 4 2 30 12 11 16 20 9 20 -7 0 -19 -7 -27 -15 -33 -33 -75
-4 -53 37 19 36 49 51 49 25z m1617 -56 c7 -29 -26 -61 -62 -61 -26 0 -67 45
-63 68 2 8 23 23 48 32 42 17 46 17 58 2 7 -9 16 -28 19 -41z m-1584 -57 c10
-10 -4 -34 -20 -34 -12 0 -14 -8 -9 -35 9 -44 -2 -45 -60 -3 -46 33 -48 36
-36 55 9 15 113 29 125 17z m1616 -26 c22 -59 23 -68 6 -68 -8 0 -20 10 -25
23 -8 21 -9 21 -9 -5 -1 -16 -5 -28 -11 -28 -5 0 -10 4 -10 8 0 5 -7 17 -15
28 -14 18 -14 17 -9 -12 8 -41 -13 -54 -26 -18 -21 55 -18 66 25 79 57 18 65
18 74 -7z m26 -139 c0 -41 -2 -44 -27 -47 -22 -3 -30 2 -38 22 -6 17 -17 26
-30 26 -15 0 -20 5 -18 18 2 12 16 19 48 23 63 8 65 7 65 -42z m-1774 -16 l1
-28 13 30 c11 24 14 27 19 13 17 -52 19 -54 25 -24 3 16 12 31 19 34 14 4 18
-83 3 -92 -4 -3 -31 -3 -60 1 l-51 6 0 37 c0 20 3 40 7 43 14 14 23 6 24 -20z
m1789 -108 c0 -33 -4 -45 -15 -45 -9 0 -15 10 -16 28 -1 27 -1 27 -8 3 -9 -34
-31 -39 -31 -7 0 14 -4 26 -10 26 -5 0 -10 -13 -10 -29 0 -26 4 -30 40 -36 22
-4 42 -10 45 -15 6 -9 -21 -40 -36 -40 -5 0 -9 -4 -9 -10 0 -5 7 -10 15 -10 8
0 15 -7 15 -15 0 -11 -11 -15 -39 -15 -22 0 -46 3 -55 6 -26 10 -19 41 12 52
26 10 27 11 5 17 -21 7 -23 14 -23 71 l0 64 60 0 60 0 0 -45z m-1727 12 c10
-6 20 -28 23 -48 6 -35 5 -36 -32 -42 -79 -13 -84 -11 -84 32 0 58 51 90 93
58z m45 -189 c6 -24 8 -46 4 -50 -4 -4 -30 -10 -59 -14 l-52 -6 -7 38 c-8 46
-8 49 8 49 7 0 15 -11 19 -25 l7 -25 1 28 c1 31 20 36 28 7 8 -32 23 -23 17
10 -5 23 -3 30 9 30 9 0 19 -16 25 -42z m1608 -9 c49 -13 50 -15 30 -64 -13
-29 -20 -35 -45 -35 -43 0 -73 32 -65 68 12 48 11 48 80 31z m-1666 -90 c0
-11 35 -8 71 6 10 4 19 0 23 -10 4 -12 -4 -20 -33 -32 -30 -12 -37 -19 -34
-34 10 -35 -26 -21 -42 17 -19 46 -19 64 0 64 8 0 15 -5 15 -11z m1627 -26
c41 -17 54 -35 34 -47 -7 -5 -96 28 -110 40 -6 5 10 24 22 24 6 0 31 -8 54
-17z m-27 -53 c45 -23 47 -27 23 -69 -18 -31 -51 -45 -39 -16 17 43 17 49 -3
25 -15 -19 -23 -22 -31 -14 -8 8 -9 14 -1 18 6 4 11 15 10 24 0 14 -3 13 -16
-5 -15 -22 -43 -32 -43 -15 0 14 40 72 50 72 6 0 29 -9 50 -20z m-1472 -8 c4
-14 -83 -56 -98 -47 -18 11 -10 24 28 44 40 22 63 23 70 3z m15 -59 c-17 -13
-16 -14 4 -8 25 7 41 -11 24 -28 -17 -17 -13 -31 4 -17 12 10 19 10 27 2 12
-12 -13 -38 -61 -64 -20 -11 -25 -10 -37 7 -12 16 -12 21 4 38 16 19 16 20 -7
14 -24 -6 -51 7 -51 24 0 4 19 21 43 37 30 22 45 27 55 20 10 -8 8 -14 -5 -25z
m1396 -30 c20 -14 37 -27 39 -28 1 -1 0 -10 -4 -19 -4 -10 -18 -16 -37 -16
-24 0 -28 -3 -19 -12 15 -15 16 -38 1 -38 -17 0 -89 54 -89 66 0 14 22 24 53
24 21 1 21 1 3 15 -18 14 -15 35 6 35 6 0 27 -12 47 -27z m-1277 -80 c10 -9
18 -26 18 -38 0 -27 -35 -65 -60 -65 -26 0 -60 38 -60 66 0 25 34 54 64 54 11
0 28 -7 38 -17z m1201 -47 c3 4 14 4 23 0 15 -6 13 -12 -16 -41 -40 -41 -65
-46 -56 -12 4 17 -1 30 -19 47 -19 18 -22 26 -14 36 9 11 17 9 43 -11 18 -14
36 -22 39 -19z m-63 -92 c0 -12 -54 -54 -70 -54 -15 0 -12 16 5 30 8 7 15 17
15 23 0 5 -9 2 -20 -8 -14 -13 -24 -15 -31 -8 -8 8 -4 15 12 27 13 8 20 19 16
23 -4 3 -13 1 -19 -5 -13 -13 -48 -16 -48 -4 0 4 17 19 38 34 l37 27 32 -37
c18 -20 32 -42 33 -48z m-1039 50 c22 -23 22 -27 9 -51 -24 -41 -46 -51 -78
-33 -15 9 -28 26 -30 38 -4 25 15 30 24 7 8 -20 40 -19 48 1 8 21 -1 34 -18
28 -16 -6 -30 11 -21 26 11 18 41 11 66 -16z m788 -149 c26 -69 26 -72 0 -80
-14 -5 -31 0 -50 14 l-29 21 6 -28 c5 -22 2 -31 -12 -36 -23 -9 -30 0 -53 64
l-20 55 6 -67 c6 -68 6 -68 -20 -68 -23 0 -25 5 -35 68 -5 37 -8 68 -7 70 2 2
19 5 38 6 19 2 39 6 46 10 6 4 24 -2 40 -13 37 -27 43 -26 31 3 -10 27 -5 36
21 36 12 0 24 -17 38 -55z m-514 18 c19 -24 18 -32 0 -40 -9 -3 -24 2 -35 12
-16 15 -22 15 -35 5 -8 -7 -15 -21 -15 -32 0 -17 5 -20 29 -15 40 8 58 -13 31
-38 -39 -35 -110 4 -110 62 0 49 32 77 82 70 22 -3 46 -14 53 -24z m131 -58
c6 -27 14 -60 18 -72 6 -20 4 -23 -19 -23 -14 0 -28 7 -31 15 -7 17 -40 20
-49 5 -7 -12 -42 -13 -49 -2 -3 5 9 37 27 71 29 56 34 61 62 59 27 -3 31 -8
41 -53z m135 45 c21 -12 26 -40 7 -40 -6 0 -4 -7 5 -18 10 -10 17 -26 17 -35
0 -21 -38 -47 -68 -47 -51 0 -83 40 -44 55 16 6 16 7 0 16 -26 15 -23 58 5 69
30 12 55 12 78 0z"/>
<path d="M1025 2410 c3 -5 11 -10 16 -10 6 0 7 5 4 10 -3 6 -11 10 -16 10 -6
0 -7 -4 -4 -10z"/>
<path d="M1157 2433 c-10 -9 -8 -53 2 -53 5 0 14 7 21 15 20 24 -2 59 -23 38z"/>
<path d="M900 2254 c-53 -24 -57 -32 -38 -64 11 -16 9 -24 -13 -47 -41 -46
-79 -108 -79 -129 0 -12 -9 -29 -20 -39 -32 -29 -27 -86 10 -113 37 -28 48
-27 85 4 27 23 28 25 7 19 -22 -6 -23 -4 -20 27 2 25 10 36 33 47 17 8 35 20
40 26 18 22 71 25 107 8 42 -21 57 -41 58 -75 0 -16 4 -28 9 -28 5 0 7 19 4
43 -4 48 7 73 31 64 23 -9 31 -36 18 -58 -7 -10 -12 -24 -12 -31 0 -18 36 -39
53 -32 8 3 23 -5 34 -19 21 -27 63 -45 63 -28 0 6 -8 11 -19 11 -27 0 -34 51
-15 101 16 40 16 40 -13 77 -17 21 -40 56 -51 78 -20 40 -74 94 -93 94 -5 0
-9 12 -9 28 0 41 -10 49 -68 54 -41 4 -63 0 -102 -18z"/>
<path d="M970 1895 c-7 -9 -8 -15 -2 -15 5 0 12 7 16 15 3 8 4 15 2 15 -2 0
-9 -7 -16 -15z"/>
<path d="M819 1818 c-21 -5 -47 -20 -60 -34 l-22 -24 22 0 c19 0 21 -3 12 -13
-6 -8 -8 -17 -5 -20 4 -4 -6 -12 -22 -18 l-29 -12 25 -6 25 -7 -28 -19 c-19
-12 -24 -20 -16 -26 8 -5 2 -12 -18 -23 -17 -8 -33 -12 -37 -9 -3 4 -6 -4 -6
-16 0 -19 4 -22 22 -18 11 3 34 -1 49 -9 15 -7 30 -14 33 -14 12 0 35 65 30
86 -5 20 -2 24 15 24 18 0 21 -6 21 -37 l0 -37 28 26 c48 45 69 51 92 28 11
-11 20 -24 20 -30 0 -5 9 -10 20 -10 11 0 23 -6 26 -14 7 -19 -44 -92 -63 -88
-9 2 -12 -1 -8 -8 4 -7 -2 -14 -14 -17 -12 -3 -21 -12 -21 -19 0 -22 -19 -16
-52 16 -30 31 -87 67 -60 39 19 -21 14 -29 -19 -29 -44 0 -64 -14 -110 -76
-22 -30 -45 -54 -51 -52 -15 5 -63 126 -54 135 4 4 16 1 28 -6 19 -12 20 -11
15 10 -3 12 -1 31 5 43 7 13 -4 7 -32 -17 -24 -20 -47 -37 -52 -37 -4 0 -8 -5
-8 -10 0 -6 5 -9 11 -8 6 2 18 -17 27 -41 12 -37 13 -48 2 -65 -7 -11 -19 -42
-25 -68 l-13 -47 31 -10 c34 -12 70 -14 80 -5 3 4 -3 18 -14 32 -13 18 -16 29
-9 36 7 7 15 4 25 -11 8 -12 31 -27 50 -33 39 -13 50 -36 46 -95 -4 -66 -22
-77 -109 -69 -54 5 -73 4 -68 -4 6 -10 36 -13 130 -13 33 1 36 -1 26 -14 -17
-21 -5 -30 33 -27 21 2 42 -4 58 -17 14 -11 57 -27 95 -36 59 -14 82 -15 164
-5 52 7 120 20 150 29 52 15 55 19 87 81 18 36 33 72 33 80 0 9 7 25 15 37 14
20 14 23 -5 33 -11 6 -41 12 -67 14 l-48 4 -3 41 c-2 25 1 41 8 41 6 0 33 20
59 45 26 25 51 45 55 45 11 0 6 -18 -10 -35 -23 -22 -7 -36 50 -42 44 -5 56
-23 15 -23 -10 0 -19 -4 -19 -10 0 -5 11 -10 24 -10 29 0 34 19 30 110 -2 36
-3 84 -4 107 0 31 -7 49 -26 70 -14 15 -23 22 -19 16 11 -23 -6 -14 -56 28
-27 23 -49 46 -48 53 4 34 -2 86 -11 86 -5 0 -7 -6 -4 -13 3 -8 -11 -17 -39
-24 -25 -7 -64 -27 -89 -46 -37 -28 -46 -32 -57 -20 -7 8 -10 20 -7 28 4 12 1
12 -21 2 -23 -10 -28 -8 -49 16 -24 28 -23 62 2 53 14 -5 19 6 8 17 -9 9 -44
-16 -44 -30 0 -21 -29 -15 -55 11 -14 14 -22 31 -19 42 6 22 -20 26 -77 12z
m372 -319 c-12 -19 -21 -41 -21 -50 0 -10 -11 -37 -25 -60 -14 -24 -25 -37
-25 -29 0 8 9 29 20 45 11 17 20 42 20 56 0 25 37 85 47 76 2 -3 -5 -20 -16
-38z m-313 -74 c12 -25 28 -45 36 -45 7 0 19 -6 25 -13 11 -14 118 -37 186
-40 l40 -2 3 -52 3 -53 -83 -1 c-46 -1 -87 0 -93 1 -5 2 -48 5 -95 7 -113 6
-140 18 -140 60 0 32 12 43 25 23 3 -5 21 -10 38 -9 l32 1 -30 11 c-64 25 -69
31 -53 63 12 25 19 29 53 28 35 -1 37 0 21 12 -11 7 -23 15 -28 16 -5 2 -6 11
-3 21 13 31 40 19 63 -28z m14 -226 l73 -1 -55 -9 c-42 -7 -66 -6 -107 7 -29
9 -53 20 -53 25 0 4 16 1 35 -7 19 -7 67 -15 107 -15z m138 -9 c-8 -5 -26 -9
-40 -9 -23 1 -23 2 5 9 43 11 52 11 35 0z"/>
<path d="M945 1800 c-10 -11 -13 -20 -7 -20 6 0 16 9 22 20 6 11 9 20 7 20 -2
0 -12 -9 -22 -20z"/>
<path d="M1126 1765 c-22 -19 -36 -38 -33 -42 4 -3 7 -1 7 5 0 7 4 11 8 10 5
-2 21 12 36 30 35 41 31 40 -18 -3z"/>
<path d="M707 1733 c-4 -3 -7 -11 -7 -17 0 -6 5 -5 12 2 6 6 9 14 7 17 -3 3
-9 2 -12 -2z"/>
<path d="M1290 1682 c0 -10 63 -62 76 -62 10 0 -16 29 -48 51 -15 11 -28 16
-28 11z"/>
<path d="M920 1570 c0 -5 5 -10 11 -10 5 0 7 5 4 10 -3 6 -8 10 -11 10 -2 0
-4 -4 -4 -10z"/>
<path d="M1370 1281 c0 -16 28 -20 34 -5 4 9 -1 14 -14 14 -11 0 -20 -4 -20
-9z"/>
<path d="M1360 1245 c7 -9 15 -13 17 -11 7 7 -7 26 -19 26 -6 0 -6 -6 2 -15z"/>
<path d="M521 1204 c0 -11 3 -14 6 -6 3 7 2 16 -1 19 -3 4 -6 -2 -5 -13z"/>
<path d="M548 1188 c6 -6 18 -8 28 -6 14 3 12 5 -9 10 -19 3 -25 2 -19 -4z"/>
<path d="M520 1150 c0 -5 7 -7 15 -4 8 4 15 8 15 10 0 2 -7 4 -15 4 -8 0 -15
-4 -15 -10z"/>
<path d="M530 1120 c0 -6 7 -10 15 -10 8 0 15 2 15 4 0 2 -7 6 -15 10 -8 3
-15 1 -15 -4z"/>
<path d="M1748 1943 c-27 -7 -22 -23 7 -23 16 0 25 6 25 15 0 15 -2 16 -32 8z"/>
<path d="M1835 1720 c-3 -5 -1 -10 4 -10 6 0 11 5 11 10 0 6 -2 10 -4 10 -3 0
-8 -4 -11 -10z"/>
<path d="M107 1574 c-4 -4 -7 -11 -7 -16 0 -13 50 -6 53 7 2 12 -36 19 -46 9z"/>
<path d="M1770 1366 c0 -10 9 -16 25 -16 14 0 25 5 25 10 0 6 -4 10 -9 10 -5
0 -16 3 -25 6 -11 4 -16 1 -16 -10z"/>
<path d="M355 1030 c-16 -18 -16 -20 -1 -26 16 -6 46 11 46 26 0 18 -29 17
-45 0z"/>
<path d="M995 740 c3 -5 13 -10 21 -10 8 0 12 5 9 10 -3 6 -13 10 -21 10 -8 0
-12 -4 -9 -10z"/>
<path d="M330 613 c-88 -46 -93 -188 -8 -238 47 -27 147 -27 185 1 15 11 33
32 40 45 13 26 11 28 -48 42 -21 5 -28 2 -39 -18 -10 -19 -21 -25 -46 -25 -39
0 -54 21 -54 72 0 63 48 93 92 59 19 -15 34 -19 62 -14 44 7 45 20 7 57 -39
37 -137 47 -191 19z"/>
<path d="M680 610 c-9 -18 -35 -75 -96 -217 l-14 -33 49 0 c41 0 51 4 56 20 5
17 15 20 60 20 45 0 55 -3 60 -20 5 -16 15 -20 56 -20 27 0 49 2 49 4 0 2 -25
61 -54 132 l-55 129 -50 3 c-42 3 -52 0 -61 -18z m80 -137 c0 -7 -11 -13 -25
-13 -28 0 -30 4 -13 51 l12 34 12 -30 c7 -17 13 -36 14 -42z"/>
<path d="M975 614 c-36 -18 -45 -31 -45 -63 0 -36 27 -60 89 -77 65 -19 82
-30 74 -50 -8 -21 -61 -17 -75 6 -17 27 -98 29 -98 3 2 -81 183 -110 249 -39
30 32 26 82 -10 108 -14 11 -50 25 -79 31 -54 12 -75 32 -45 43 9 4 28 -2 45
-14 21 -16 37 -20 64 -15 38 6 44 17 22 45 -29 39 -136 51 -191 22z"/>
<path d="M1240 496 l0 -136 50 0 51 0 -3 133 -3 132 -47 3 -48 3 0 -135z"/>
<path d="M1407 623 c-4 -3 -7 -64 -7 -135 l0 -128 45 0 45 0 0 59 c0 33 4 62
8 65 5 3 30 -24 57 -60 48 -63 49 -64 97 -64 l49 0 -3 133 -3 132 -45 0 -45 0
0 -62 c0 -35 -3 -63 -6 -63 -4 0 -30 29 -58 65 -47 60 -54 65 -90 65 -20 0
-41 -3 -44 -7z"/>
<path d="M1572 304 c-12 -8 -22 -11 -22 -5 0 6 -4 11 -9 11 -11 0 -19 -30 -14
-47 7 -19 23 -16 23 5 1 16 1 16 11 0 11 -20 44 -24 54 -8 5 8 11 8 20 0 10
-8 15 -8 20 0 5 8 11 8 19 1 16 -14 26 -4 26 24 0 19 -5 22 -29 21 -16 -1 -33
-5 -37 -9 -4 -4 -15 0 -24 8 -14 13 -19 13 -38 -1z m28 -24 c0 -5 -4 -10 -10
-10 -5 0 -10 5 -10 10 0 6 5 10 10 10 6 0 10 -4 10 -10z"/>
<path d="M267 303 c-4 -3 -7 -14 -7 -24 0 -21 38 -35 53 -20 8 8 5 11 -11 11
-12 0 -22 5 -22 10 0 6 9 10 21 10 11 0 17 5 14 10 -7 11 -38 13 -48 3z"/>
<path d="M330 280 c0 -28 2 -30 38 -30 21 0 43 5 49 11 8 8 13 8 17 0 11 -18
26 -13 26 9 0 11 5 20 10 20 6 0 10 -9 10 -20 0 -11 5 -20 11 -20 6 0 13 9 16
20 7 25 23 26 23 2 0 -14 8 -19 30 -19 22 0 29 4 26 14 -3 7 -1 13 3 13 5 0
12 -7 15 -16 9 -24 50 -14 54 14 4 27 -23 40 -49 24 -10 -7 -21 -8 -24 -3 -8
14 -145 13 -145 -1 0 -9 -3 -9 -12 0 -19 19 -36 14 -41 -10 l-4 -23 -2 23 c-1
16 -7 22 -26 22 -21 0 -25 -5 -25 -30z m310 0 c0 -5 -4 -10 -10 -10 -5 0 -10
5 -10 10 0 6 5 10 10 10 6 0 10 -4 10 -10z"/>
<path d="M700 280 c0 -25 4 -30 23 -30 13 0 28 5 35 12 9 9 12 9 12 0 0 -7 11
-12 25 -12 21 0 25 5 25 30 0 25 -4 30 -25 30 -14 0 -25 -5 -25 -12 0 -9 -3
-9 -12 0 -7 7 -22 12 -35 12 -19 0 -23 -5 -23 -30z m40 0 c0 -5 -4 -10 -10
-10 -5 0 -10 5 -10 10 0 6 5 10 10 10 6 0 10 -4 10 -10z"/>
<path d="M860 280 l0 -27 75 0 c41 -1 78 3 81 9 4 5 10 5 17 0 7 -5 54 -9 105
-9 l92 0 0 28 c0 33 -14 38 -29 12 -10 -17 -10 -17 -11 0 0 11 -8 17 -25 17
-18 0 -25 -5 -25 -20 0 -11 -4 -20 -9 -20 -5 0 -11 9 -14 20 -7 27 -31 25 -45
-2 l-11 -23 0 23 c-1 23 -15 30 -26 12 -5 -8 -11 -7 -21 1 -11 9 -16 6 -24
-12 -10 -22 -10 -22 -6 -2 3 20 0 21 -60 21 -63 0 -64 -1 -64 -28z"/>
<path d="M1240 280 c0 -28 2 -30 40 -30 33 0 40 3 40 20 0 11 7 20 15 20 8 0
15 -9 15 -20 0 -11 5 -20 10 -20 6 0 10 9 10 20 0 11 5 20 10 20 6 0 10 5 10
10 0 6 -20 9 -45 8 -36 -1 -45 -5 -45 -20 0 -11 -7 -18 -20 -18 -13 0 -20 7
-20 20 0 11 -4 20 -10 20 -5 0 -10 -13 -10 -30z"/>
<path d="M1400 291 c-17 -33 -12 -37 50 -36 34 0 59 4 57 10 -1 5 -8 9 -14 7
-7 -2 -13 2 -13 8 0 5 9 10 21 10 11 0 17 5 14 10 -10 16 -43 12 -55 -7 -10
-17 -10 -17 -20 0 -14 22 -27 22 -40 -2z"/>
<path d="M737 203 c-11 -10 -8 -53 3 -53 6 0 10 14 10 30 0 31 -2 35 -13 23z"/>
<path d="M804 198 c-2 -3 -13 -4 -24 -1 -16 4 -20 0 -20 -19 0 -21 5 -24 35
-25 28 -1 35 3 35 18 0 10 5 19 10 19 6 0 10 -9 10 -20 0 -11 4 -20 9 -20 5 0
11 9 14 20 3 11 10 20 16 20 6 0 11 -9 11 -20 0 -15 7 -20 28 -20 26 0 28 3
24 29 l-4 29 -70 -1 c-38 -1 -72 -5 -74 -9z"/>
<path d="M975 196 c-10 -7 -16 -20 -13 -28 5 -12 32 -15 140 -16 111 0 130 2
116 12 -10 7 -18 18 -18 25 0 6 -7 11 -15 11 -8 0 -15 -8 -15 -17 -1 -17 -1
-17 -11 0 -14 23 -33 21 -52 -5 l-16 -23 0 21 c-1 27 -26 38 -43 20 -11 -11
-16 -11 -34 0 -17 12 -23 12 -39 0z"/>
</g>
</svg>
